<svg width="512" height="512" viewBox="0 0 512 512" fill="none" xmlns="http://www.w3.org/2000/svg">
  <rect width="512" height="512" rx="128" fill="url(#paint0_linear)" />
  <path d="M169.6 384V128H280.96C301.973 128 319.36 131.413 333.12 138.24C346.88 144.96 357.12 154.347 363.84 166.4C370.56 178.453 373.92 192 373.92 207.04C373.92 222.08 370.56 235.627 363.84 247.68C357.12 259.733 346.88 269.12 333.12 275.84C319.36 282.56 301.973 285.92 280.96 285.92H213.76V384H169.6ZM213.76 249.28H277.6C292.64 249.28 303.84 245.92 311.2 239.2C318.56 232.48 322.24 221.6 322.24 206.56C322.24 191.52 318.56 180.64 311.2 173.92C303.84 167.2 292.64 163.84 277.6 163.84H213.76V249.28Z" fill="white"/>
  <defs>
    <linearGradient id="paint0_linear" x1="0" y1="0" x2="512" y2="512" gradientUnits="userSpaceOnUse">
      <stop stop-color="#2563EB"/>
      <stop offset="1" stop-color="#9333EA"/>
    </linearGradient>
  </defs>
</svg> 